<svg width="50" height="50" viewBox="0 0 50 50" fill="none" xmlns="http://www.w3.org/2000/svg">
<path d="M18.75 25C18.75 26.6576 19.4085 28.2473 20.5806 29.4194C21.7527 30.5915 23.3424 31.25 25 31.25C26.6576 31.25 28.2473 30.5915 29.4194 29.4194C30.5915 28.2473 31.25 26.6576 31.25 25" stroke="#222222" stroke-linecap="round"/>
<path d="M9.375 16.8361C9.375 16.235 9.375 15.9344 9.46082 15.651C9.54663 15.3676 9.71335 15.1175 10.0468 14.6173L12.3542 11.1562C12.9355 10.2843 13.2261 9.8483 13.6683 9.61165C14.1105 9.375 14.6345 9.375 15.6824 9.375H34.3176C35.3655 9.375 35.8895 9.375 36.3317 9.61165C36.7739 9.8483 37.0645 10.2843 37.6458 11.1562L39.9532 14.6173C40.2866 15.1175 40.4534 15.3676 40.5392 15.651C40.625 15.9344 40.625 16.235 40.625 16.8361V36.625C40.625 38.5106 40.625 39.4534 40.0392 40.0392C39.4534 40.625 38.5106 40.625 36.625 40.625H13.375C11.4894 40.625 10.5466 40.625 9.96079 40.0392C9.375 39.4534 9.375 38.5106 9.375 36.625V16.8361Z" stroke="#222222"/>
<path d="M9.375 19.7917H40.625" stroke="#222222" stroke-linecap="round"/>
</svg>
